<?xml version="1.0" standalone="no"?>
<!DOCTYPE svg PUBLIC "-//W3C//DTD SVG 20010904//EN"
 "http://www.w3.org/TR/2001/REC-SVG-20010904/DTD/svg10.dtd">
<svg version="1.0" xmlns="http://www.w3.org/2000/svg"
 width="1814.000000pt" height="508.000000pt" viewBox="0 0 1814.000000 508.000000"
 preserveAspectRatio="xMidYMid meet">

<g transform="translate(0.000000,508.000000) scale(0.100000,-0.100000)"
fill="#000000" stroke="none">
<path d="M818 3729 c-13 -8 -1 -29 16 -29 7 0 25 -9 38 -20 14 -11 57 -36 94
-56 38 -19 87 -45 109 -58 22 -12 92 -51 155 -86 157 -86 495 -276 665 -373
77 -44 163 -91 190 -105 28 -14 95 -52 150 -84 133 -78 132 -78 151 -78 18 0
93 38 234 118 52 30 129 73 170 95 41 22 93 52 115 65 22 14 76 44 120 67 44
23 111 59 148 81 80 46 137 79 209 118 29 16 66 39 81 52 16 13 38 24 49 24
12 0 29 6 37 14 17 14 92 57 152 87 19 10 41 25 49 33 7 9 20 16 29 16 9 1 41
16 71 35 30 19 70 42 88 50 32 15 43 35 20 35 -2375 4 -3132 4 -3140 -1z"/>
<path d="M12410 3724 c-25 -7 -54 -14 -65 -14 -24 0 -144 -49 -206 -84 -120
-68 -265 -234 -305 -351 -8 -22 -18 -49 -23 -60 -16 -37 -29 -90 -41 -160 -15
-83 -8 -384 8 -430 6 -16 19 -55 27 -85 40 -132 145 -286 252 -369 53 -41 146
-98 176 -107 12 -3 36 -15 53 -25 17 -11 44 -19 60 -19 16 0 51 -7 78 -15 69
-21 418 -21 499 0 32 8 71 15 87 15 16 0 32 5 35 10 3 6 19 10 34 10 16 0 40
9 55 21 l26 21 -2 381 -3 382 -78 3 c-50 2 -84 -1 -93 -9 -11 -9 -14 -68 -14
-324 0 -238 -3 -315 -12 -322 -49 -37 -302 -54 -427 -28 -172 35 -250 70 -358
163 -70 59 -112 120 -152 217 -40 99 -51 156 -58 314 -12 274 77 478 264 604
79 53 99 62 208 87 172 40 363 33 552 -21 40 -11 77 -18 82 -14 16 9 52 116
46 134 -6 19 -93 61 -125 61 -10 0 -45 7 -77 15 -78 20 -438 20 -503 -1z"/>
<path d="M14195 3720 c-85 -23 -157 -48 -169 -61 -6 -5 -16 -9 -23 -9 -28 0
-162 -97 -231 -167 -100 -103 -164 -232 -207 -415 -18 -78 -20 -321 -4 -383 6
-22 14 -58 19 -80 8 -39 26 -94 52 -165 31 -82 141 -222 219 -281 114 -85 235
-139 359 -158 98 -16 346 -14 400 3 25 8 72 22 105 32 134 39 306 161 379 270
14 21 39 58 55 82 61 90 121 330 121 482 0 179 -71 436 -148 535 -95 122 -120
149 -175 189 -85 60 -171 97 -305 130 -92 23 -352 20 -447 -4z m386 -151 c150
-32 290 -130 376 -262 29 -44 55 -94 59 -111 3 -17 11 -36 16 -43 28 -35 46
-317 28 -442 -30 -215 -150 -401 -310 -481 -124 -63 -199 -80 -351 -80 -117 0
-145 3 -205 24 -187 63 -289 154 -376 333 -73 153 -96 346 -62 538 33 188 132
346 274 438 139 90 366 126 551 86z"/>
<path d="M5132 3718 c-17 -17 -17 -1679 0 -1696 7 -7 44 -12 95 -12 71 0 84 3
93 20 7 13 10 264 10 766 0 457 3 751 9 757 6 6 98 7 233 4 213 -5 225 -6 272
-30 27 -14 75 -50 106 -81 56 -56 56 -56 74 -155 20 -110 17 -163 -15 -268
-24 -77 -78 -134 -172 -182 -63 -32 -73 -34 -199 -38 -105 -4 -136 -9 -145
-21 -14 -17 -17 -110 -5 -128 12 -19 82 -24 191 -13 187 18 298 66 412 179 80
78 98 110 130 222 30 108 21 275 -21 383 -19 50 -80 132 -129 173 -88 75 -156
99 -316 116 -163 17 -607 20 -623 4z"/>
<path d="M7125 3716 c-7 -6 -30 -51 -50 -101 -20 -49 -43 -104 -51 -122 -7
-17 -14 -35 -14 -41 0 -5 -12 -36 -26 -68 -15 -33 -46 -108 -69 -169 -56 -142
-112 -282 -129 -320 -32 -71 -46 -106 -46 -116 0 -6 -7 -27 -16 -47 -44 -98
-55 -125 -98 -237 -26 -66 -62 -156 -81 -200 -18 -44 -49 -118 -69 -163 -35
-85 -37 -112 -7 -113 75 -2 152 -2 155 2 6 7 47 102 82 194 86 221 126 322
140 353 8 18 14 39 14 46 0 38 22 40 362 38 181 -1 334 -5 339 -8 16 -9 48
-94 135 -354 20 -58 41 -118 48 -135 7 -16 22 -52 32 -80 l20 -50 88 -5 c48
-3 93 -2 99 2 15 9 -5 72 -88 283 -13 33 -28 76 -34 95 -5 19 -23 71 -39 115
-17 44 -36 96 -42 115 -7 19 -18 49 -25 65 -33 79 -85 222 -85 232 0 7 -6 27
-14 45 -8 18 -28 71 -44 118 -65 184 -95 266 -107 295 -28 67 -44 111 -50 135
-6 25 -26 79 -51 137 -8 17 -14 36 -14 42 0 6 -11 16 -24 21 -34 12 -223 9
-241 -4z m133 -173 c5 -10 17 -43 27 -73 10 -30 23 -68 30 -85 20 -48 36 -97
45 -135 4 -19 28 -87 52 -150 72 -185 90 -239 86 -263 -3 -22 -3 -22 -254 -27
-138 -3 -258 -4 -267 -2 -26 5 -28 32 -6 81 33 71 39 84 49 116 13 43 39 117
49 140 5 11 19 47 31 80 13 33 35 92 51 130 15 39 36 95 45 125 25 80 44 99
62 63z"/>
<path d="M10620 3710 c-11 -11 -20 -25 -20 -31 0 -5 -11 -34 -24 -62 -26 -57
-67 -156 -84 -202 -27 -76 -105 -271 -111 -280 -4 -5 -17 -37 -29 -70 -13 -33
-29 -73 -37 -88 -8 -16 -15 -37 -15 -47 0 -9 -7 -23 -15 -30 -8 -7 -15 -22
-15 -34 0 -12 -6 -30 -14 -41 -7 -11 -17 -36 -21 -55 -4 -19 -14 -44 -21 -55
-8 -11 -14 -25 -14 -32 0 -7 -11 -36 -25 -65 -13 -29 -63 -150 -110 -268 -48
-118 -95 -234 -106 -257 -20 -45 -17 -72 10 -74 17 -1 141 -1 153 0 3 1 12 18
19 39 6 20 15 42 19 47 4 6 17 39 29 75 12 36 26 74 31 85 5 11 18 43 30 70
12 28 25 59 30 70 5 11 28 67 50 125 23 58 45 109 50 114 10 10 664 11 681 1
5 -4 15 -19 21 -33 20 -51 80 -217 108 -302 46 -138 81 -232 96 -262 14 -28
16 -28 105 -28 66 0 91 4 95 13 3 8 -25 94 -62 193 -36 98 -79 215 -96 259
-16 44 -36 95 -44 113 -7 18 -14 42 -14 53 0 12 -6 33 -14 47 -16 31 -72 179
-116 307 -50 146 -91 258 -106 293 -8 18 -14 37 -14 43 0 6 -6 25 -14 42 -36
83 -56 137 -56 152 0 9 -6 29 -14 43 -24 48 -46 102 -46 117 0 22 -13 25 -134
30 -106 5 -117 4 -136 -15z m160 -231 c14 -41 28 -79 32 -85 4 -6 12 -28 17
-50 13 -50 66 -203 125 -363 26 -69 46 -134 44 -145 -3 -20 -9 -21 -258 -26
-140 -3 -263 -1 -272 3 -23 10 -23 35 2 72 11 17 20 39 20 51 0 11 4 24 8 30
7 8 34 75 59 149 6 17 22 59 36 95 60 149 101 257 110 290 11 41 26 62 41 57
5 -2 22 -37 36 -78z"/>
<path d="M15615 3706 c-3 -12 -4 -394 -3 -851 l3 -830 84 -3 c46 -2 88 1 92 5
5 5 9 338 10 741 1 402 6 732 10 732 8 0 49 -54 49 -65 0 -4 29 -56 65 -115
36 -60 72 -124 81 -142 8 -18 28 -55 44 -81 17 -26 46 -80 67 -120 20 -40 49
-90 63 -112 15 -22 40 -65 55 -95 15 -30 33 -62 40 -70 7 -8 29 -46 50 -83 31
-60 122 -221 182 -327 40 -70 109 -192 129 -228 l20 -37 152 -3 c138 -2 152
-1 161 16 16 30 9 1655 -7 1674 -10 12 -32 16 -97 14 -46 0 -86 -4 -89 -7 -5
-4 -7 -1266 -2 -1454 1 -34 -3 -50 -11 -50 -10 0 -94 138 -137 225 -4 8 -26
47 -49 87 -23 40 -66 114 -96 165 -30 51 -77 132 -105 181 -58 99 -78 135
-128 227 -45 83 -97 173 -131 227 -15 24 -27 46 -27 50 0 3 -6 14 -14 22 -7 9
-33 54 -57 101 -24 47 -62 115 -86 152 -50 77 -50 77 -206 76 -100 -1 -108 -2
-112 -22z"/>
<path d="M8392 3708 c-9 -9 -12 -210 -12 -845 0 -954 -12 -853 104 -853 45 0
69 5 80 16 14 14 16 97 16 768 0 500 3 755 10 762 22 22 450 2 484 -22 11 -8
28 -14 37 -14 9 0 45 -28 80 -63 l64 -63 19 -102 c35 -193 -9 -337 -128 -416
-91 -59 -105 -64 -250 -75 -76 -5 -143 -14 -148 -19 -5 -5 -8 -40 -6 -78 l3
-69 50 1 c28 0 83 2 124 4 95 4 69 33 326 -370 107 -168 159 -241 175 -250 11
-6 59 -9 108 -8 83 3 87 4 90 26 2 13 -3 31 -11 40 -8 9 -44 60 -79 112 -236
349 -323 484 -323 504 0 10 13 26 30 35 55 30 94 64 142 125 87 109 118 216
110 374 -7 133 -31 211 -90 288 -79 104 -170 161 -304 189 -90 19 -682 22
-701 3z"/>
<path d="M753 3492 c6 -15 20 -39 32 -53 11 -15 47 -73 80 -129 82 -139 139
-233 193 -317 15 -23 49 -79 76 -125 27 -46 64 -106 82 -134 19 -28 34 -55 34
-61 0 -6 7 -16 16 -24 8 -7 25 -31 36 -53 11 -23 24 -43 28 -46 4 -3 14 -19
23 -36 9 -17 36 -61 61 -99 25 -37 46 -71 46 -76 0 -5 20 -39 45 -76 25 -37
45 -73 45 -80 0 -7 11 -23 25 -35 14 -12 25 -26 25 -32 0 -5 12 -28 27 -50 65
-100 76 -117 92 -145 47 -87 97 -169 118 -194 12 -16 23 -35 23 -42 0 -7 16
-34 35 -59 19 -26 35 -50 35 -55 0 -4 10 -21 23 -37 12 -16 33 -49 47 -74 30
-54 68 -115 137 -224 55 -85 80 -125 117 -191 12 -22 27 -38 32 -35 11 6 13
188 2 245 -4 23 -12 212 -18 420 -14 521 -29 835 -41 866 -9 23 -77 73 -239
174 -19 12 -46 29 -60 38 -14 10 -54 37 -90 61 -36 24 -84 54 -106 67 -23 13
-74 47 -114 74 -40 28 -80 55 -89 60 -9 6 -36 24 -60 40 -76 52 -175 114 -198
124 -11 5 -24 15 -28 21 -4 7 -22 19 -39 26 -17 8 -49 28 -71 45 -22 16 -58
39 -80 50 -22 12 -51 31 -65 44 -14 12 -37 29 -52 36 -15 8 -53 32 -85 54 -32
22 -70 46 -85 52 -27 12 -27 12 -15 -15z"/>
<path d="M3992 3505 c-13 -7 -35 -23 -50 -37 -15 -13 -43 -32 -62 -41 -19 -9
-60 -35 -90 -57 -30 -22 -86 -59 -124 -82 -37 -24 -76 -48 -85 -53 -54 -34
-111 -73 -146 -101 -22 -17 -58 -41 -80 -53 -42 -23 -66 -38 -135 -86 -79 -55
-125 -85 -150 -95 -13 -6 -69 -41 -123 -78 -140 -95 -183 -123 -242 -160 -22
-14 -51 -33 -65 -43 -14 -11 -39 -25 -57 -33 -24 -11 -34 -24 -43 -54 -6 -23
-15 -225 -20 -457 -5 -229 -12 -420 -14 -424 -3 -5 -8 -136 -11 -292 -3 -156
-8 -292 -11 -302 -7 -21 5 -59 16 -52 9 6 110 171 110 180 0 4 11 21 23 38 13
18 41 64 62 102 21 39 50 88 65 110 15 22 38 58 52 80 14 22 58 93 99 158 41
65 79 126 84 136 6 11 16 25 23 33 6 8 27 44 45 79 19 35 58 102 89 149 54 85
94 149 113 182 38 67 141 237 156 258 10 14 42 66 70 115 29 50 63 103 76 118
13 16 23 35 23 42 0 7 10 26 23 42 13 15 43 61 67 102 25 40 57 92 72 115 16
22 35 55 44 71 27 52 40 74 56 92 9 10 19 28 22 39 4 12 15 29 26 39 11 10 20
23 20 29 0 5 11 26 24 45 59 89 96 149 96 155 0 9 -22 6 -48 -9z"/>
<path d="M6223 1490 c-138 -29 -209 -124 -207 -275 1 -62 7 -91 24 -125 50
-100 105 -132 237 -138 110 -5 143 1 143 27 0 26 -20 31 -93 24 -131 -12 -227
51 -248 161 -25 138 34 249 143 268 62 11 55 11 134 2 51 -5 62 -4 67 10 4 10
-2 21 -16 30 -28 19 -130 27 -184 16z"/>
<path d="M7907 1489 c-137 -33 -214 -139 -205 -284 6 -93 42 -163 106 -209 40
-29 59 -36 121 -42 171 -16 288 79 299 243 8 119 -48 227 -145 276 -37 19
-129 28 -176 16z m178 -80 c53 -36 85 -108 85 -190 0 -81 -11 -113 -53 -157
-41 -43 -89 -63 -153 -65 -64 -1 -133 37 -172 95 -24 37 -27 51 -27 122 0 111
22 165 78 194 56 29 71 31 145 28 45 -3 72 -10 97 -27z"/>
<path d="M8905 1490 c-72 -11 -141 -60 -180 -127 -23 -39 -27 -57 -28 -137 -1
-77 2 -98 22 -136 56 -109 134 -149 266 -137 123 12 198 79 228 206 l18 74
-26 78 c-39 117 -102 171 -210 181 -27 3 -68 2 -90 -2z m122 -60 c58 -15 98
-56 117 -120 51 -171 -31 -310 -183 -310 -142 0 -221 92 -209 243 9 114 57
172 159 195 46 10 48 10 116 -8z"/>
<path d="M5059 1473 c-22 -26 15 -43 92 -43 37 0 71 -5 74 -10 4 -6 6 -107 6
-225 0 -184 2 -217 16 -230 15 -15 17 -15 32 0 14 14 16 42 13 208 -2 106 1
206 6 222 8 29 11 30 73 35 68 5 89 13 89 35 0 21 -18 23 -208 24 -152 0 -182
-2 -193 -16z"/>
<path d="M5591 1477 c-13 -16 -17 -495 -4 -508 9 -9 290 -15 300 -6 3 3 3 13
0 22 -5 12 -26 15 -116 15 -99 0 -111 2 -121 19 -14 27 -13 154 2 169 8 8 46
12 104 12 94 0 116 8 94 35 -8 10 -40 15 -108 17 l-97 3 -3 79 c-2 46 2 84 8
90 6 6 46 9 98 7 67 -2 92 1 107 13 20 16 20 16 1 31 -27 20 -248 22 -265 2z"/>
<path d="M9515 1481 c-35 -9 -103 -50 -126 -77 -9 -11 -27 -41 -39 -69 -20
-43 -22 -61 -18 -142 5 -82 9 -98 34 -134 39 -57 80 -86 148 -103 68 -18 189
-12 224 10 20 13 22 22 22 119 0 92 -2 105 -19 114 -30 17 -40 -7 -43 -105
l-3 -89 -92 0 c-105 0 -126 10 -178 84 -28 40 -30 49 -30 134 0 85 2 95 28
129 50 65 149 99 236 79 51 -11 83 -4 79 18 -7 33 -139 52 -223 32z"/>
<path d="M9877 1483 c-14 -14 -6 -50 18 -83 14 -19 25 -39 25 -46 0 -6 7 -17
15 -24 8 -7 15 -19 15 -27 0 -8 16 -42 35 -74 33 -57 35 -65 35 -152 0 -99 7
-121 36 -115 17 3 19 15 22 108 2 68 7 110 16 120 7 8 32 51 56 95 23 44 56
102 73 128 20 33 27 51 19 59 -25 25 -48 0 -112 -119 -36 -68 -70 -123 -76
-123 -7 0 -38 51 -69 113 -68 134 -88 160 -108 140z"/>
<path d="M10752 1473 c-11 -10 -41 -72 -67 -138 -64 -162 -74 -185 -91 -218
-8 -16 -14 -36 -14 -46 0 -9 -7 -26 -15 -37 -18 -24 -20 -74 -2 -74 21 0 40
28 66 95 42 106 36 102 145 101 53 -1 100 -6 106 -12 6 -6 19 -35 30 -66 37
-107 79 -155 89 -103 3 17 -44 150 -61 170 -4 5 -8 19 -8 32 0 12 -7 37 -14
55 -8 18 -34 81 -56 140 -47 121 -65 138 -108 101z m66 -129 c13 -38 28 -73
33 -78 12 -13 12 -56 -1 -57 -145 -8 -167 4 -133 73 12 24 25 57 29 73 10 43
24 67 37 62 6 -2 21 -34 35 -73z"/>
<path d="M11136 1477 c-16 -12 -18 -33 -17 -257 1 -134 4 -247 7 -252 3 -4 13
-8 24 -8 27 0 32 37 29 240 -2 147 0 185 10 185 7 0 43 -53 80 -117 36 -64 78
-138 94 -163 15 -26 27 -51 27 -55 0 -5 12 -27 27 -49 28 -43 55 -52 94 -31
18 10 19 24 19 245 0 128 -3 240 -6 249 -8 20 -40 21 -48 1 -8 -21 -9 -323 0
-372 6 -38 4 -43 -12 -43 -13 0 -32 24 -64 83 -24 45 -51 94 -60 109 -8 15
-30 55 -48 89 -18 34 -39 68 -47 76 -8 8 -15 20 -15 27 0 33 -66 63 -94 43z"/>
<path d="M11740 1481 l-35 -6 -3 -249 c-1 -137 1 -253 6 -258 4 -4 53 -8 110
-9 97 -2 105 0 169 32 96 48 127 94 131 198 5 95 -9 147 -51 199 -36 45 -56
56 -142 83 -60 19 -118 22 -185 10z m218 -75 c58 -30 77 -50 97 -105 19 -54
19 -91 0 -160 -23 -86 -98 -131 -219 -131 -96 0 -91 -9 -88 212 2 106 6 196 8
200 3 4 39 8 80 8 59 0 85 -5 122 -24z"/>
<path d="M12615 1480 c-11 -18 -11 -492 0 -507 13 -18 45 -7 46 16 0 9 1 101
1 204 1 103 4 189 7 192 14 8 29 -12 76 -100 26 -49 67 -122 91 -161 24 -40
44 -75 44 -78 0 -4 12 -25 27 -47 24 -37 29 -40 67 -37 l41 3 3 235 c1 129 0
245 -3 258 -4 17 -12 22 -28 20 -22 -3 -22 -5 -25 -215 -1 -120 -6 -213 -12
-213 -10 0 -45 47 -60 81 -6 13 -19 38 -29 54 -10 17 -50 86 -90 155 -39 68
-82 130 -94 137 -27 15 -54 16 -62 3z"/>
<path d="M13182 1477 c-13 -16 -17 -98 -14 -325 2 -157 4 -183 18 -189 9 -3
20 0 25 8 5 8 9 104 8 214 -3 245 4 255 76 113 26 -51 56 -106 66 -123 10 -16
36 -61 58 -100 62 -110 67 -115 111 -115 21 0 41 4 45 9 3 5 6 118 6 252 1
208 -2 244 -15 257 -14 15 -17 15 -32 1 -12 -13 -15 -51 -17 -222 -1 -129 -6
-208 -12 -209 -9 -2 -60 76 -83 127 -5 11 -42 75 -81 142 -39 68 -71 127 -71
132 0 25 -72 48 -88 28z"/>
<path d="M13874 1474 c-101 -36 -164 -133 -164 -253 0 -143 85 -252 208 -265
161 -19 274 56 309 204 11 49 11 63 -8 135 -22 88 -44 119 -118 166 -39 25
-54 29 -115 28 -39 0 -90 -7 -112 -15z m154 -37 c56 -17 118 -75 131 -124 14
-49 14 -154 0 -190 -13 -36 -44 -69 -91 -99 -80 -51 -201 -21 -265 64 -31 41
-33 49 -33 125 0 64 5 92 22 129 22 48 38 60 118 89 57 21 66 21 118 6z"/>
<path d="M14303 1474 c-3 -8 1 -32 10 -52 37 -92 83 -218 126 -347 31 -91 48
-115 86 -115 24 0 55 29 55 50 0 7 9 31 19 54 10 23 26 59 34 81 55 143 100
254 115 282 15 31 15 34 -1 50 -17 17 -19 17 -38 -6 -10 -13 -19 -30 -19 -37
0 -8 -4 -22 -10 -32 -5 -9 -25 -57 -44 -107 -19 -49 -45 -119 -59 -155 -14
-36 -28 -75 -32 -88 -11 -37 -38 -22 -52 28 -7 25 -17 54 -23 65 -5 11 -33 87
-60 170 -28 82 -56 155 -62 162 -14 18 -37 16 -45 -3z"/>
<path d="M14995 1483 c-28 -7 -45 -23 -45 -41 0 -8 -13 -44 -30 -79 -16 -34
-30 -67 -30 -72 0 -14 -101 -255 -111 -265 -15 -16 -10 -56 7 -63 22 -8 30 3
68 96 19 46 40 87 46 91 16 10 183 11 197 2 5 -4 25 -45 44 -91 32 -80 59
-114 76 -98 4 5 0 34 -9 65 -23 82 -95 282 -113 314 -8 14 -15 33 -15 41 0 26
-41 107 -53 106 -7 -1 -21 -4 -32 -6z m39 -120 c9 -27 24 -62 33 -79 8 -18 12
-41 8 -53 -6 -19 -14 -21 -76 -21 -87 0 -88 4 -37 128 16 39 36 72 43 72 7 0
20 -21 29 -47z"/>
<path d="M15243 1474 c-13 -34 5 -44 76 -44 61 0 72 -3 81 -21 8 -13 11 -89 9
-223 -1 -111 1 -208 5 -214 10 -17 33 -15 40 4 3 9 6 109 6 223 0 148 3 210
12 219 7 7 41 12 84 12 78 0 108 16 84 44 -17 22 -388 22 -397 0z"/>
<path d="M16078 1468 c-159 -82 -195 -316 -69 -446 36 -37 58 -50 99 -61 56
-14 170 -8 206 11 34 19 106 90 106 107 0 9 7 25 15 35 11 14 15 46 15 108 0
74 -4 97 -25 137 -24 49 -76 96 -128 119 -44 19 -175 13 -219 -10z m232 -55
c54 -32 80 -91 83 -185 2 -71 -1 -89 -21 -124 -38 -65 -82 -94 -154 -100 -105
-10 -177 34 -211 126 -42 112 -5 239 82 286 40 21 55 24 118 20 45 -3 84 -11
103 -23z"/>
<path d="M16577 1477 c-16 -11 -18 -38 -19 -257 -1 -212 1 -245 15 -254 11 -7
20 -6 32 4 14 12 16 39 14 214 -1 149 2 201 11 201 10 0 67 -89 90 -142 5 -12
21 -41 36 -65 40 -62 74 -127 74 -141 0 -7 14 -27 31 -44 32 -35 87 -45 107
-20 6 7 10 103 10 243 1 182 -2 236 -13 250 -11 15 -17 17 -32 8 -16 -10 -18
-29 -18 -220 0 -172 -2 -209 -14 -209 -8 0 -18 7 -22 15 -56 98 -149 270 -149
275 0 4 -13 27 -30 52 -16 24 -30 48 -30 53 0 11 -50 50 -64 50 -7 0 -20 -6
-29 -13z"/>
<path d="M6575 1470 c-9 -14 -9 -486 0 -500 9 -15 32 -12 39 6 3 9 6 58 6 109
0 84 2 95 20 105 12 6 71 9 147 8 l128 -3 2 -95 c4 -126 8 -142 36 -138 l22 3
0 255 0 255 -25 0 -25 0 -3 -112 c-2 -80 -6 -113 -15 -114 -59 -2 -273 3 -277
7 -3 3 -7 54 -10 112 -4 89 -8 107 -22 110 -9 2 -19 -2 -23 -8z"/>
<path d="M7153 1468 c-9 -15 -16 -452 -8 -485 6 -25 39 -32 51 -12 4 7 7 102
8 212 1 218 9 246 46 165 11 -24 33 -63 48 -88 16 -25 44 -74 64 -110 75 -138
109 -188 133 -194 30 -8 53 1 60 24 3 10 6 123 7 251 1 201 -1 234 -15 243
-11 7 -20 6 -31 -3 -14 -12 -15 -40 -12 -217 4 -186 3 -204 -12 -204 -10 0
-31 25 -52 62 -19 34 -54 96 -78 137 -23 42 -48 87 -54 101 -7 14 -23 38 -35
53 -13 16 -23 35 -23 42 0 30 -81 48 -97 23z"/>
<path d="M8365 1467 c-3 -7 -4 -123 -3 -257 l3 -245 130 -6 c99 -4 133 -3 144
7 12 11 12 16 1 28 -10 12 -33 16 -107 15 -55 0 -100 4 -106 10 -7 7 -10 82
-8 215 2 135 -1 212 -9 225 -12 23 -38 28 -45 8z"/>
<path d="M12411 1466 c-8 -9 -11 -84 -9 -251 3 -217 5 -239 21 -249 15 -9 21
-7 33 8 11 16 14 65 14 247 0 125 -3 234 -6 243 -8 20 -38 21 -53 2z"/>
<path d="M15756 1462 c-4 -10 -5 -121 -4 -246 2 -235 9 -278 40 -248 15 15 23
371 10 457 -8 53 -35 74 -46 37z"/>
</g>
</svg>
