<?xml version="1.0" standalone="no"?>
<!DOCTYPE svg PUBLIC "-//W3C//DTD SVG 20010904//EN"
 "http://www.w3.org/TR/2001/REC-SVG-20010904/DTD/svg10.dtd">
<svg version="1.0" xmlns="http://www.w3.org/2000/svg"
 width="478.000000pt" height="508.000000pt" viewBox="0 0 478.000000 508.000000"
 preserveAspectRatio="xMidYMid meet">

<g transform="translate(0.000000,508.000000) scale(0.100000,-0.100000)"
fill="#000000" stroke="none">
<path d="M818 3729 c-13 -8 -1 -29 16 -29 7 0 25 -9 38 -20 14 -11 57 -36 94
-56 38 -19 87 -45 109 -58 22 -12 92 -51 155 -86 157 -86 495 -276 665 -373
77 -44 163 -91 190 -105 28 -14 95 -52 150 -84 133 -78 132 -78 151 -78 18 0
93 38 234 118 52 30 129 73 170 95 41 22 93 52 115 66 22 15 49 30 60 34 11 5
77 40 148 80 181 102 210 118 269 151 29 16 66 39 81 52 16 13 39 24 52 24 13
0 27 5 30 10 4 6 34 25 67 43 101 54 119 65 137 81 10 9 24 16 32 16 8 1 39
16 69 35 30 19 70 42 88 50 32 15 43 35 20 35 -2375 4 -3132 4 -3140 -1z"/>
<path d="M753 3492 c6 -15 20 -39 32 -53 11 -15 47 -73 80 -129 91 -154 147
-246 193 -317 15 -23 49 -79 76 -125 42 -72 64 -108 124 -203 7 -11 20 -33 30
-48 30 -51 74 -120 124 -196 26 -41 48 -78 48 -82 0 -5 20 -39 45 -76 25 -37
45 -73 45 -80 0 -7 11 -23 25 -35 14 -12 25 -26 25 -32 0 -5 12 -28 27 -50 65
-100 76 -117 92 -145 47 -87 97 -169 118 -194 12 -16 23 -35 23 -42 0 -7 16
-34 35 -59 19 -26 35 -50 35 -55 0 -4 10 -21 23 -37 12 -16 33 -49 47 -74 30
-54 68 -115 137 -224 55 -85 80 -125 117 -191 12 -22 27 -38 32 -35 11 6 13
188 2 246 -4 23 -12 210 -18 415 -14 528 -30 850 -44 875 -10 19 -132 108
-204 149 -29 17 -66 41 -178 116 -38 25 -88 57 -110 70 -23 13 -74 47 -114 74
-40 28 -80 55 -89 60 -9 6 -36 24 -60 40 -76 52 -175 114 -198 124 -11 5 -24
15 -28 21 -4 7 -22 19 -39 26 -17 8 -49 28 -71 45 -22 16 -58 39 -80 50 -22
12 -51 31 -65 44 -14 12 -37 29 -52 36 -15 8 -53 32 -85 54 -32 22 -70 46 -85
52 -27 12 -27 12 -15 -15z"/>
<path d="M3992 3505 c-13 -7 -35 -23 -50 -37 -15 -13 -43 -32 -62 -41 -19 -9
-60 -35 -90 -57 -30 -22 -86 -59 -124 -82 -37 -24 -76 -48 -85 -53 -54 -34
-111 -73 -146 -101 -22 -17 -58 -41 -80 -53 -42 -23 -66 -38 -135 -86 -79 -55
-125 -85 -150 -95 -13 -6 -69 -41 -123 -78 -140 -95 -183 -123 -242 -160 -22
-14 -51 -33 -65 -43 -14 -11 -39 -25 -57 -33 -24 -11 -34 -24 -43 -54 -6 -23
-15 -225 -20 -457 -5 -229 -12 -420 -14 -424 -3 -5 -8 -136 -11 -292 -3 -156
-8 -292 -11 -302 -7 -21 5 -59 16 -52 9 6 110 171 110 180 0 4 11 21 23 38 13
18 41 64 62 102 21 39 50 88 65 110 15 22 38 58 52 80 14 22 58 93 99 158 41
65 79 127 85 137 6 11 17 28 25 37 8 10 26 41 39 68 13 28 51 93 85 145 34 52
106 169 160 260 54 91 106 176 116 190 10 14 42 66 70 115 29 50 63 103 76
118 13 16 23 35 23 42 0 7 10 26 23 42 13 15 43 61 67 102 25 40 57 92 72 115
16 22 35 55 44 71 27 52 40 74 56 92 9 10 19 28 22 39 4 12 15 29 26 39 11 10
20 23 20 29 0 5 11 26 24 45 59 89 96 149 96 155 0 9 -22 6 -48 -9z"/>
</g>
</svg>
